<mxfile host="app.diagrams.net" modified="2020-07-30T11:09:29.134Z" agent="5.0 (Windows)" etag="TrxsDl9pcD57g7je3Ndj" version="13.5.5" type="github">
  <diagram name="Page-1" id="bfe91b75-5d2c-26a0-9c1d-138518896778">
    <mxGraphModel dx="1422" dy="755" grid="1" gridSize="10" guides="1" tooltips="1" connect="1" arrows="1" fold="1" page="1" pageScale="1" pageWidth="1100" pageHeight="850" background="#ffffff" math="0" shadow="0">
      <root>
        <mxCell id="0" />
        <mxCell id="1" parent="0" />
        <mxCell id="uBf4WlFnlG3D6gjFVoi6-39" value="" style="group" parent="1" vertex="1" connectable="0">
          <mxGeometry x="30" y="120" width="910" height="530" as="geometry" />
        </mxCell>
        <mxCell id="uBf4WlFnlG3D6gjFVoi6-3" value="" style="fontColor=#0066CC;verticalAlign=top;verticalLabelPosition=bottom;labelPosition=center;align=center;html=1;outlineConnect=0;fillColor=#CCCCCC;strokeColor=#6881B3;gradientColor=none;gradientDirection=north;strokeWidth=2;shape=mxgraph.networks.pc;" parent="uBf4WlFnlG3D6gjFVoi6-39" vertex="1">
          <mxGeometry x="750" y="360" width="100" height="70" as="geometry" />
        </mxCell>
        <mxCell id="uBf4WlFnlG3D6gjFVoi6-26" style="edgeStyle=orthogonalEdgeStyle;rounded=0;orthogonalLoop=1;jettySize=auto;html=1;startArrow=none;startFill=0;endArrow=none;endFill=0;strokeWidth=2;" parent="uBf4WlFnlG3D6gjFVoi6-39" source="uBf4WlFnlG3D6gjFVoi6-9" edge="1">
          <mxGeometry relative="1" as="geometry">
            <mxPoint x="580" y="195" as="targetPoint" />
          </mxGeometry>
        </mxCell>
        <mxCell id="uBf4WlFnlG3D6gjFVoi6-9" value="&lt;div style=&quot;font-size: 14px&quot;&gt;Hyper-V&lt;/div&gt;&lt;div style=&quot;font-size: 14px&quot;&gt;192.168.0.14&lt;/div&gt;&lt;div style=&quot;font-size: 14px&quot;&gt;Ubuntu Server 20.04LTS&lt;br&gt;&lt;/div&gt;&lt;div&gt;&lt;br&gt;&lt;/div&gt;&lt;div&gt;&lt;br&gt;&lt;/div&gt;&lt;div&gt;Notify Backend&lt;br&gt;&lt;/div&gt;&lt;div&gt;&lt;br&gt;&lt;/div&gt;&lt;div&gt;Socket.io TCP(3000)&lt;br&gt;&lt;/div&gt;&lt;div&gt;Nodejs/Express TCP(3000)&lt;br&gt;&lt;/div&gt;" style="rounded=0;whiteSpace=wrap;html=1;" parent="uBf4WlFnlG3D6gjFVoi6-39" vertex="1">
          <mxGeometry x="250" y="110" width="240" height="170" as="geometry" />
        </mxCell>
        <mxCell id="uBf4WlFnlG3D6gjFVoi6-13" value="&lt;div&gt;Host&lt;br&gt;&lt;/div&gt;&lt;div&gt;Windows Server&lt;/div&gt;" style="rounded=0;whiteSpace=wrap;html=1;" parent="uBf4WlFnlG3D6gjFVoi6-39" vertex="1">
          <mxGeometry x="250" y="280" width="240" height="60" as="geometry" />
        </mxCell>
        <mxCell id="uBf4WlFnlG3D6gjFVoi6-15" value="" style="shape=doubleArrow;whiteSpace=wrap;html=1;" parent="uBf4WlFnlG3D6gjFVoi6-39" vertex="1">
          <mxGeometry x="150" y="300" width="100" height="10" as="geometry" />
        </mxCell>
        <mxCell id="uBf4WlFnlG3D6gjFVoi6-16" value="&lt;div&gt;SSH port 3322&lt;br&gt;&lt;div&gt;194.19.236.5&lt;/div&gt;&lt;/div&gt;&lt;div&gt;user: ntfadmin&lt;br&gt;&lt;/div&gt;&lt;div&gt;&lt;br&gt;&lt;/div&gt;" style="text;html=1;strokeColor=none;fillColor=none;align=center;verticalAlign=middle;whiteSpace=wrap;rounded=0;" parent="uBf4WlFnlG3D6gjFVoi6-39" vertex="1">
          <mxGeometry y="280" width="180" height="70" as="geometry" />
        </mxCell>
        <mxCell id="uBf4WlFnlG3D6gjFVoi6-20" value="" style="html=1;outlineConnect=0;fillColor=#CCCCCC;strokeColor=#6881B3;gradientColor=none;gradientDirection=north;strokeWidth=2;shape=mxgraph.networks.comm_link_edge;html=1;" parent="uBf4WlFnlG3D6gjFVoi6-39" edge="1">
          <mxGeometry width="100" height="100" relative="1" as="geometry">
            <mxPoint x="730" y="50" as="sourcePoint" />
            <mxPoint x="790" y="50" as="targetPoint" />
            <Array as="points">
              <mxPoint x="760" />
            </Array>
          </mxGeometry>
        </mxCell>
        <mxCell id="uBf4WlFnlG3D6gjFVoi6-22" value="" style="fontColor=#0066CC;verticalAlign=top;verticalLabelPosition=bottom;labelPosition=center;align=center;html=1;outlineConnect=0;fillColor=#CCCCCC;strokeColor=#6881B3;gradientColor=none;gradientDirection=north;strokeWidth=2;shape=mxgraph.networks.wireless_hub;" parent="uBf4WlFnlG3D6gjFVoi6-39" vertex="1">
          <mxGeometry x="575" y="25" width="100" height="85" as="geometry" />
        </mxCell>
        <mxCell id="uBf4WlFnlG3D6gjFVoi6-24" value="" style="group" parent="uBf4WlFnlG3D6gjFVoi6-39" vertex="1" connectable="0">
          <mxGeometry x="830" y="40" width="80" height="125" as="geometry" />
        </mxCell>
        <mxCell id="uBf4WlFnlG3D6gjFVoi6-2" value="" style="shape=mxgraph.cisco.computers_and_peripherals.scanner;html=1;dashed=0;fillColor=#036897;strokeColor=#ffffff;strokeWidth=2;verticalLabelPosition=bottom;verticalAlign=top" parent="uBf4WlFnlG3D6gjFVoi6-24" vertex="1">
          <mxGeometry width="80" height="75" as="geometry" />
        </mxCell>
        <mxCell id="uBf4WlFnlG3D6gjFVoi6-21" value="&lt;div style=&quot;font-size: 14px;&quot;&gt;Honeywell&lt;/div&gt;&lt;div style=&quot;font-size: 14px;&quot;&gt;Scanner&lt;br style=&quot;font-size: 14px;&quot;&gt;&lt;/div&gt;" style="text;html=1;strokeColor=none;fillColor=none;align=center;verticalAlign=middle;whiteSpace=wrap;rounded=0;fontSize=14;" parent="uBf4WlFnlG3D6gjFVoi6-24" vertex="1">
          <mxGeometry x="20" y="105" width="40" height="20" as="geometry" />
        </mxCell>
        <mxCell id="uBf4WlFnlG3D6gjFVoi6-37" style="edgeStyle=orthogonalEdgeStyle;rounded=0;orthogonalLoop=1;jettySize=auto;html=1;entryX=0.5;entryY=1;entryDx=0;entryDy=0;entryPerimeter=0;startArrow=none;startFill=0;endArrow=none;endFill=0;strokeWidth=2;fontSize=14;" parent="uBf4WlFnlG3D6gjFVoi6-39" source="uBf4WlFnlG3D6gjFVoi6-25" target="uBf4WlFnlG3D6gjFVoi6-22" edge="1">
          <mxGeometry relative="1" as="geometry" />
        </mxCell>
        <mxCell id="uBf4WlFnlG3D6gjFVoi6-38" style="edgeStyle=orthogonalEdgeStyle;rounded=0;orthogonalLoop=1;jettySize=auto;html=1;entryX=0;entryY=0.5;entryDx=0;entryDy=0;entryPerimeter=0;startArrow=none;startFill=0;endArrow=none;endFill=0;strokeWidth=2;fontSize=14;" parent="uBf4WlFnlG3D6gjFVoi6-39" target="uBf4WlFnlG3D6gjFVoi6-3" edge="1">
          <mxGeometry relative="1" as="geometry">
            <mxPoint x="670" y="195" as="sourcePoint" />
            <Array as="points">
              <mxPoint x="680" y="195" />
              <mxPoint x="680" y="395" />
            </Array>
          </mxGeometry>
        </mxCell>
        <mxCell id="uBf4WlFnlG3D6gjFVoi6-25" value="" style="html=1;outlineConnect=0;fillColor=#CCCCCC;strokeColor=#6881B3;gradientColor=none;gradientDirection=north;strokeWidth=2;shape=mxgraph.networks.bus;gradientColor=none;gradientDirection=north;fontColor=#ffffff;perimeter=backbonePerimeter;backboneSize=20;" parent="uBf4WlFnlG3D6gjFVoi6-39" vertex="1">
          <mxGeometry x="580" y="192.5" width="90" height="5" as="geometry" />
        </mxCell>
        <mxCell id="uBf4WlFnlG3D6gjFVoi6-29" value="" style="endArrow=classic;html=1;fillColor=#f8cecc;strokeColor=#b85450;" parent="uBf4WlFnlG3D6gjFVoi6-39" edge="1">
          <mxGeometry width="50" height="50" relative="1" as="geometry">
            <mxPoint x="700" y="350" as="sourcePoint" />
            <mxPoint x="810" y="140" as="targetPoint" />
            <Array as="points">
              <mxPoint x="700" y="140" />
            </Array>
          </mxGeometry>
        </mxCell>
        <mxCell id="uBf4WlFnlG3D6gjFVoi6-32" value="1" style="edgeLabel;html=1;align=center;verticalAlign=middle;resizable=0;points=[];labelBorderColor=none;fontSize=16;" parent="uBf4WlFnlG3D6gjFVoi6-29" vertex="1" connectable="0">
          <mxGeometry x="-0.6187" y="2" relative="1" as="geometry">
            <mxPoint as="offset" />
          </mxGeometry>
        </mxCell>
        <mxCell id="uBf4WlFnlG3D6gjFVoi6-30" value="3" style="endArrow=classic;html=1;fontSize=16;fillColor=#f8cecc;strokeColor=#b85450;" parent="uBf4WlFnlG3D6gjFVoi6-39" edge="1">
          <mxGeometry x="-0.5333" width="50" height="50" relative="1" as="geometry">
            <mxPoint x="510" y="150" as="sourcePoint" />
            <mxPoint x="810" y="150" as="targetPoint" />
            <mxPoint as="offset" />
          </mxGeometry>
        </mxCell>
        <mxCell id="uBf4WlFnlG3D6gjFVoi6-31" value="2" style="endArrow=classic;html=1;fillColor=#f8cecc;strokeColor=#b85450;fontSize=16;" parent="uBf4WlFnlG3D6gjFVoi6-39" edge="1">
          <mxGeometry x="-0.5556" width="50" height="50" relative="1" as="geometry">
            <mxPoint x="660" y="350" as="sourcePoint" />
            <mxPoint x="510" y="230" as="targetPoint" />
            <Array as="points">
              <mxPoint x="660" y="230" />
            </Array>
            <mxPoint as="offset" />
          </mxGeometry>
        </mxCell>
        <mxCell id="uBf4WlFnlG3D6gjFVoi6-33" value="&lt;div align=&quot;left&quot;&gt;&lt;ol&gt;&lt;li&gt;Native message to scanner&lt;/li&gt;&lt;li&gt;Duplicating message to Notify service&lt;/li&gt;&lt;li&gt;Notification websocket message to scanner&lt;br&gt;&lt;/li&gt;&lt;/ol&gt;&lt;/div&gt;" style="text;html=1;strokeColor=none;fillColor=none;align=left;verticalAlign=middle;whiteSpace=wrap;rounded=0;fontSize=16;" parent="uBf4WlFnlG3D6gjFVoi6-39" vertex="1">
          <mxGeometry x="170" y="360" width="410" height="170" as="geometry" />
        </mxCell>
        <mxCell id="uBf4WlFnlG3D6gjFVoi6-35" value="MS Dynamics" style="text;html=1;strokeColor=none;fillColor=none;align=center;verticalAlign=middle;whiteSpace=wrap;rounded=0;fontSize=14;" parent="uBf4WlFnlG3D6gjFVoi6-39" vertex="1">
          <mxGeometry x="730" y="450" width="150" height="20" as="geometry" />
        </mxCell>
      </root>
    </mxGraphModel>
  </diagram>
</mxfile>
